HIERARCHY
ROOT Hips
{
	OFFSET -0.179506 -22.333345 2.821913
	CHANNELS 6 Xposition Yposition Zposition Zrotation Yrotation Xrotation 
	JOINT LeftUpLeg
	{
		OFFSET 6.951974 -9.140623 -0.681533
		CHANNELS 3 Zrotation Yrotation Xrotation
		JOINT LeftLeg
		{
			OFFSET 3.427654 -37.519855 -0.449580
			CHANNELS 3 Zrotation Yrotation Xrotation
			JOINT LeftFoot
			{
				OFFSET -1.359570 -39.796059 -4.369333
				CHANNELS 3 Zrotation Yrotation Xrotation
				JOINT LeftToe
				{
					OFFSET 2.635814 -5.579078 11.928840
					CHANNELS 3 Zrotation Yrotation Xrotation
					End Site
					{
						OFFSET 0.000000 0.000000 0.000000
					}
				}
			}
		}
	}
	JOINT RightUpLeg
	{
		OFFSET -6.767048 -9.052170 -0.431982
		CHANNELS 3 Zrotation Yrotation Xrotation
		JOINT RightLeg
		{
			OFFSET -3.829005 -38.256897 -0.885003
			CHANNELS 3 Zrotation Yrotation Xrotation
			JOINT RightFoot
			{
				OFFSET 1.577377 -39.841461 -4.231180
				CHANNELS 3 Zrotation Yrotation Xrotation
				JOINT RightToe
				{
					OFFSET -2.537174 -4.814398 12.334795
					CHANNELS 3 Zrotation Yrotation Xrotation
					End Site
					{
						OFFSET 0.000000 0.000000 0.000000
					}
				}
			}
		}
	}
	JOINT Spine
	{
		OFFSET -0.253288 10.896323 -2.669631
		CHANNELS 3 Zrotation Yrotation Xrotation
		JOINT Spine1
		{
			OFFSET 0.548704 13.518043 0.109247
			CHANNELS 3 Zrotation Yrotation Xrotation
			JOINT Spine2
			{
				OFFSET 0.145701 5.292222 2.542457
				CHANNELS 3 Zrotation Yrotation Xrotation
				JOINT Neck
				{
					OFFSET -0.277840 21.387037 -4.285703
					CHANNELS 3 Zrotation Yrotation Xrotation
					JOINT Head
					{
						OFFSET 0.515184 6.496960 5.134897
						CHANNELS 3 Zrotation Yrotation Xrotation
						End Site
						{
							OFFSET 0.000000 0.000000 0.000000
						}
					}
				}
				JOINT LeftShoulder
				{
					OFFSET 7.884473 12.174932 -3.408961
					CHANNELS 3 Zrotation Yrotation Xrotation
					JOINT LeftArm
					{
						OFFSET 9.097692 3.046888 -0.886815
						CHANNELS 3 Zrotation Yrotation Xrotation
						JOINT LeftForeArm
						{
							OFFSET 25.961220 -1.277207 -2.745643
							CHANNELS 3 Zrotation Yrotation Xrotation
							JOINT LeftHand
							{
								OFFSET 24.923361 0.898606 -0.117091
								CHANNELS 3 Zrotation Yrotation Xrotation
								End Site
								{
									OFFSET 0.000000 0.000000 0.000000
								}
							}
						}
					}
				}
				JOINT RightShoulder
				{
					OFFSET -8.175920 11.883285 -3.861528
					CHANNELS 3 Zrotation Yrotation Xrotation
					JOINT RightArm
					{
						OFFSET -9.601238 3.255117 -0.914307
						CHANNELS 3 Zrotation Yrotation Xrotation
						JOINT RightForeArm
						{
							OFFSET -25.374195 -1.332924 -2.140099
							CHANNELS 3 Zrotation Yrotation Xrotation
							JOINT RightHand
							{
								OFFSET -25.529810 0.777228 -0.555919
								CHANNELS 3 Zrotation Yrotation Xrotation
								End Site
								{
									OFFSET 0.000000 0.000000 0.000000
								}
							}
						}
					}
				}
			}
		}
	}
}
MOTION
Frames: 12
Frame Time: 0.033333
-47.791382 122.898369 87.872955 114.535310 -0.484142 90.356220 17.097227 8.442219 -15.256493 -6.809542 10.190126 30.235125 2.888031 6.543708 -20.918558 nan nan nan -23.837201 -8.441881 -3.742560 1.979878 -10.820852 19.180082 5.501831 3.421724 -17.905254 nan nan nan -1.447926 7.189328 2.111645 1.166117 -0.990210 14.194423 -1.136676 1.059715 -8.605804 6.057757 24.300856 14.434931 -12.755112 10.061447 16.669119 -11.032983 -1.516912 -6.583363 -45.603892 -18.979934 1.306231 130.227362 -36.001538 -97.303606 4.133668 -17.119928 -5.210089 16.144065 24.947271 -1.961025 68.016752 34.595879 35.334654 -154.818395 69.178833 -139.383415 -0.919765 16.962690 -26.274271 
-47.646603 122.480034 87.926514 114.563203 -0.506356 90.311755 17.247045 8.567353 -15.022363 -6.744206 9.943276 29.708471 2.774789 6.545275 -20.506600 nan nan nan -23.524580 -8.436832 -3.775807 1.944222 -10.723381 19.325563 5.463371 3.202966 -18.021417 nan nan nan -1.491418 7.116497 2.462163 1.126031 -0.916311 13.333841 -1.049949 1.053331 -8.287676 5.901435 24.288222 14.494988 -12.611337 10.173173 16.658276 -11.071417 -1.533139 -6.543521 -45.248968 -18.888352 1.065937 129.941219 -36.097224 -97.136604 4.154640 -17.231362 -5.607607 15.998567 24.895416 -2.027975 68.236080 34.552960 35.296492 -155.088327 69.250434 -139.468466 -0.914342 16.977080 -26.247237 
-47.504757 122.024857 87.971756 114.554838 -0.600727 90.207127 17.367723 8.619051 -14.695751 -6.708082 9.770486 29.115518 2.642316 6.620410 -19.981209 nan nan nan -23.268662 -8.391783 -3.811805 1.863776 -10.586112 19.504122 5.443154 3.011682 -18.198871 nan nan nan -1.590600 7.086733 2.293951 1.062769 -0.969017 13.758957 -1.074685 1.082941 -8.445458 5.889516 24.459481 14.408471 -12.505134 10.107047 16.730737 -10.997477 -1.815680 -6.612247 -44.816926 -18.724644 0.813184 129.532804 -35.934736 -96.752595 3.854694 -17.284556 -5.662936 15.946277 25.265221 -2.184501 68.128065 34.510248 35.340823 -154.378556 69.133990 -138.636028 -0.820937 17.052803 -26.198456 
-47.382488 121.547379 88.018936 114.550146 -0.730262 90.208036 17.415260 8.643840 -14.508185 -6.629656 9.631523 28.548068 2.396746 6.767701 -19.396123 nan nan nan -23.048624 -8.332494 -4.010608 1.818865 -10.443714 19.743425 5.426816 2.863316 -18.480453 nan nan nan -1.761952 6.981092 2.015364 0.973344 -1.048029 14.205469 -1.108756 1.183883 -8.610298 5.872287 24.610090 14.301014 -12.382847 10.074855 16.816943 -10.883500 -2.077856 -6.786451 -44.474494 -18.505059 0.660894 129.183371 -35.804912 -96.263292 3.699074 -17.204030 -5.566607 15.923890 25.592265 -2.335607 68.049311 34.523946 35.433397 -153.748544 69.036481 -137.899145 -0.856997 17.052123 -26.340800 
-47.265423 121.067116 88.090195 114.582602 -0.785391 90.213241 17.488649 8.685536 -14.328014 -6.435561 9.458266 27.970604 2.073816 6.819878 -18.720494 nan nan nan -22.784316 -8.371583 -4.205187 1.867077 -10.343128 20.043270 5.299759 2.735525 -18.716825 nan nan nan -1.851810 6.825339 2.005752 0.891772 -1.067423 14.096749 -1.100989 1.286602 -8.565818 5.772954 24.649703 14.314666 -12.246595 10.138139 16.750001 -10.907210 -2.175688 -6.822550 -44.078577 -18.366759 0.378780 128.956487 -35.908808 -95.935122 3.613599 -17.164655 -5.229129 15.891256 25.654435 -2.321997 68.102145 34.682367 35.350198 -153.795760 69.046840 -137.892042 -0.806156 17.034308 -26.400697 
-47.138924 120.578667 88.180923 114.697490 -0.826045 90.179349 17.620214 8.680292 -14.100999 -6.271889 9.386115 27.323683 1.862245 6.748705 -18.061496 nan nan nan -22.502473 -8.479426 -4.250899 1.921485 -10.248888 20.221210 5.104274 2.656972 -18.859801 nan nan nan -1.934282 6.724681 1.997949 0.857987 -1.119621 14.197333 -1.078812 1.296314 -8.670743 5.738384 24.655851 14.354184 -12.266295 10.241748 16.710455 -10.958742 -2.183520 -6.847329 -43.735596 -18.300008 0.150839 128.734579 -36.061199 -95.719395 3.775269 -17.115808 -4.932444 15.943957 25.649820 -2.245493 68.128258 34.965687 35.299218 -153.830721 69.083913 -137.918160 -0.696469 16.867724 -26.192516 
-46.993286 120.071831 88.277138 114.774929 -0.862946 90.118129 17.788466 8.806827 -13.805580 -6.164963 9.371934 26.608669 1.808373 6.686187 -17.422945 nan nan nan -22.176395 -8.482556 -4.195916 1.963822 -10.122798 20.216972 4.894772 2.596422 -19.062159 nan nan nan -2.020464 6.652788 2.078006 0.827692 -1.145596 14.213691 -1.046364 1.285618 -8.750912 5.696947 24.729338 14.324489 -12.240786 10.346628 16.771708 -10.969907 -2.155997 -6.953326 -43.459959 -18.207145 0.026642 128.491372 -36.139852 -95.525897 3.871325 -17.011099 -5.139675 16.026912 25.655730 -2.150569 68.242728 35.290739 35.380746 -153.670138 69.099690 -137.774795 -0.622387 16.685115 -26.108545 
-46.836327 119.559990 88.369347 114.845325 -0.870678 90.027548 17.982241 8.947440 -13.497234 -6.082122 9.330283 25.906196 1.786874 6.788049 -16.772106 nan nan nan -21.849170 -8.415010 -4.053372 2.053465 -10.068687 20.147107 4.609964 2.542375 -19.354449 nan nan nan -2.033021 6.604363 2.175312 0.747294 -1.137226 14.087843 -1.037927 1.269935 -8.624365 5.675009 24.791729 14.242042 -12.168091 10.415601 16.770440 -10.866687 -2.216609 -6.989730 -43.233951 -18.070463 -0.165896 128.221676 -36.281475 -95.164885 4.019699 -17.050351 -5.503429 15.880981 25.696372 -2.230548 68.449561 35.459473 35.404305 -153.620444 69.051071 -137.625341 -0.584957 16.570558 -26.198960 
-46.678658 119.035736 88.465454 114.925390 -0.897293 89.956448 18.132260 9.002528 -13.195915 -5.953185 9.310699 25.156207 1.655038 6.910296 -16.016143 nan nan nan -21.565329 -8.396120 -3.897016 2.169049 -10.046476 19.992745 4.283685 2.480560 -19.616532 nan nan nan -2.078450 6.621498 2.149781 0.645992 -1.108555 14.194667 -1.058664 1.230362 -8.621010 5.734090 24.743697 14.150727 -12.073627 10.394798 16.823176 -10.795073 -2.290510 -7.006518 -42.960697 -18.073016 -0.267478 127.896047 -36.478042 -94.825233 4.140822 -17.081114 -5.662083 15.667968 25.659709 -2.467548 68.725147 35.427937 35.499408 -153.595675 69.044354 -137.511450 -0.646642 16.574545 -26.285341 
-46.525837 118.507126 88.565559 115.026964 -0.948516 89.915077 18.231578 9.020749 -12.929921 -5.727822 9.489575 24.416115 1.448890 6.923956 -15.206951 nan nan nan -21.341353 -8.441600 -3.703320 2.319193 -10.125274 19.741114 4.017782 2.544303 -19.758452 nan nan nan -2.160038 6.654983 2.021768 0.577197 -1.117737 14.468650 -1.090797 1.171057 -8.702233 5.769813 24.737439 14.089643 -11.929661 10.244415 16.853829 -10.703157 -2.350057 -7.043497 -42.959210 -18.316837 -0.226057 127.473476 -36.479341 -94.364872 3.756633 -17.112386 -5.436499 15.529458 25.623213 -2.611197 69.014574 35.413514 35.739101 -153.141132 68.987925 -136.984679 -0.560096 16.715729 -26.203445 
-46.383385 117.986053 88.672874 115.148791 -0.963447 89.913972 18.313825 9.018855 -12.736629 -5.450580 9.868663 23.683759 1.372481 7.024667 -14.387091 nan nan nan -21.125616 -8.467161 -3.514583 2.577899 -10.345001 19.496679 3.839375 2.637678 -19.752682 nan nan nan -2.194309 6.638387 1.888100 0.521033 -1.157846 14.656685 -1.080672 1.172120 -8.774794 5.743712 24.755883 14.280878 -11.832270 10.039379 16.656482 -10.531257 -2.576224 -7.110500 -43.418347 -18.527644 -0.147460 127.019087 -36.224604 -93.604351 2.999715 -17.256249 -5.158186 15.271130 25.764405 -2.741957 69.221874 35.286812 35.795986 -152.461622 68.812588 -136.202643 -0.253427 17.003794 -26.093938 
-46.230183 117.478729 88.789780 115.327149 -0.926218 89.974612 18.391242 9.056342 -12.609164 -5.198492 10.092996 22.909014 1.446208 7.240522 -13.526712 nan nan nan -20.861091 -8.507660 -3.279972 2.926361 -10.450752 19.077571 3.707619 2.642188 -19.636713 nan nan nan -2.178488 6.562523 1.688921 0.469003 -1.239347 14.827719 -1.054753 1.216993 -8.909630 5.667858 24.658872 14.594345 -11.802433 9.987827 16.373037 -10.594816 -2.851105 -6.985312 -43.321451 -18.217200 -0.319371 126.992409 -36.192191 -93.620505 2.868429 -17.043226 -4.729878 15.023107 26.019692 -2.654195 69.085825 35.238675 35.412027 -152.580377 68.665045 -136.445548 -0.234244 16.976073 -25.966783 
